<?xml version="1.0" encoding="UTF-8"?> <svg xmlns="http://www.w3.org/2000/svg" xmlns:xlink="http://www.w3.org/1999/xlink" viewBox="0 0 440 228"><defs><style>.cls-1{fill:#7929d2;}.cls-2{fill:#9454db;}.cls-3{fill:#af7fe4;}.cls-4{fill:url(#linear-gradient);}.cls-5{fill:url(#linear-gradient-2);}.cls-6{fill:url(#linear-gradient-3);}.cls-7{fill:url(#linear-gradient-4);}.cls-8{fill:#fff;}</style><linearGradient id="linear-gradient" x1="174.37615" y1="84.25163" x2="268.28139" y2="84.25163" gradientUnits="userSpaceOnUse"><stop offset="0" stop-color="#7929d2"></stop><stop offset="1" stop-color="#0070c5"></stop></linearGradient><linearGradient id="linear-gradient-2" x1="180.76741" y1="1.52424" x2="179.9809" y2="94.35039" gradientUnits="userSpaceOnUse"><stop offset="0" stop-color="#00aeff"></stop><stop offset="1" stop-color="#9454db"></stop></linearGradient><linearGradient id="linear-gradient-3" x1="232.45568" y1="40.01494" x2="212.40737" y2="5.29025" gradientUnits="userSpaceOnUse"><stop offset="0" stop-color="#66a9dc"></stop><stop offset="1" stop-color="#b1e4fa"></stop></linearGradient><linearGradient id="linear-gradient-4" x1="236.91521" y1="12.80673" x2="248.30597" y2="91.59285" xlink:href="#linear-gradient-2"></linearGradient></defs><g id="Colored_Positive" data-name="Colored Positive"><polygon class="cls-1" points="139.235 121.816 108.213 134.914 134.589 148.235 139.235 121.816"></polygon><polygon class="cls-2" points="72.257 139.174 39.167 126.786 46.839 152.801 72.257 139.174"></polygon><polygon class="cls-3" points="87.948 115.889 108.213 134.914 72.257 139.174 87.948 115.889"></polygon><polygon class="cls-3" points="43.162 98.013 39.167 126.786 14.155 101.821 43.162 98.013"></polygon><polygon class="cls-4" points="139.235 121.815 220.898 46.688 257.609 95.332 139.235 121.815"></polygon><polygon class="cls-5" points="139.235 121.815 174.116 11.275 220.898 46.688 139.235 121.815"></polygon><polygon class="cls-6" points="174.116 11.275 257.609 11.275 220.898 46.688 174.116 11.275"></polygon><polygon class="cls-7" points="257.609 95.332 257.609 11.275 220.898 46.688 257.609 95.332"></polygon><path class="cls-8" d="M173.72849,204.16071v-8.832l23.56445-32.95313H174.84177v-9.57421h34.957v8.42382l-23.78711,33.36133h24.418v9.57422Z"></path><path class="cls-8" d="M225.00583,187.20173q.25928,5.19579,2.52344,7.459,2.26319,2.26392,7.125,2.26367a15.798,15.798,0,0,0,4.9541-.70508,7.93658,7.93658,0,0,0,3.72949-2.709l7.125,5.084a14.41482,14.41482,0,0,1-6.06738,5.04688Q240.666,205.3111,234.209,205.3111q-9.61231,0-14.34278-5.04687-4.73144-5.04639-4.73144-15.252,0-20.89233,18.70312-20.89257,8.31153,0,12.67286,4.69433,4.35938,4.69482,4.36035,13.67481v4.71289Zm16.36524-6.60547q0-8.8689-7.75586-8.86914a8.86706,8.86706,0,0,0-4.19336.87207,6.51957,6.51957,0,0,0-2.61621,2.59765,16.38407,16.38407,0,0,0-1.54,5.39942Z"></path><path class="cls-8" d="M293.94822,184.41852a29.93347,29.93347,0,0,1-1.89258,11.0586,15.86935,15.86935,0,0,1-5.418,7.31054,14.09154,14.09154,0,0,1-8.42383,2.52344,16.04089,16.04089,0,0,1-11.02148-4.04492v17.55273h-9.57422V165.233h8.832v3.82226a22.98277,22.98277,0,0,1,5.62207-3.61816,16.46074,16.46074,0,0,1,6.77246-1.31738q7.38428,0,11.24414,5.19531Q293.94725,174.51081,293.94822,184.41852Zm-9.8711.14844q0-5.67774-1.9668-8.85058a6.45467,6.45467,0,0,0-5.86328-3.17286,11.81246,11.81246,0,0,0-4.80566,1.09473,16.08786,16.08786,0,0,0-4.249,2.69043v17.0332a15.30691,15.30691,0,0,0,3.7666,2.43067,10.72372,10.72372,0,0,0,4.62011,1.05761,7.14027,7.14027,0,0,0,6.21583-3.35839A15.62105,15.62105,0,0,0,284.07712,184.567Z"></path><path class="cls-8" d="M325.96579,204.16071V182.71149q0-6.15966-1.15039-8.16406a4.3045,4.3045,0,0,0-4.082-2.00391q-4.26855,0-10.2793,5.64063v25.97656h-9.57421V148.90485h9.57421v21.375a22.04648,22.04648,0,0,1,6.49415-4.60156,16.33765,16.33765,0,0,1,6.7539-1.55859q6.53028,0,9.18457,3.67382,2.65284,3.67383,2.65332,10.39063v25.97656Z"></path><path class="cls-8" d="M340.06052,209.39313a17.38649,17.38649,0,0,0,5.60352,1.07617,5.90756,5.90756,0,0,0,3.78515-1.29882q1.63184-1.29931,3.377-5.38086l1.002-2.30078L339.76365,165.233H349.709l9.20312,24.86328,9.42578-24.86328h9.72266l-16.73633,41.59961a31.006,31.006,0,0,1-3.9707,7.42187,11.36245,11.36245,0,0,1-4.50879,3.48828,16.9072,16.9072,0,0,1-6.47559,1.07617,31.86625,31.86625,0,0,1-8.34961-1.11328Z"></path><path class="cls-8" d="M405.99607,174.58454a8.85139,8.85139,0,0,0-3.9336-.74219,10.58689,10.58689,0,0,0-5.06543,1.28028,22.32436,22.32436,0,0,0-4.917,3.72949v25.30859h-9.57422V165.233h9.57422v5.5664a24.993,24.993,0,0,1,5.26953-4.416,11.75131,11.75131,0,0,1,6.3086-1.74414,8.47323,8.47323,0,0,1,4.23047.77929Z"></path><path class="cls-8" d="M419.30745,162.80811h-.90405v2.07682h-1.234v-5.79574h2.71146a1.8049,1.8049,0,0,1,1.94643,1.86828,1.66317,1.66317,0,0,1-1.26926,1.72025l1.30385,2.20721h-1.4166Zm.39081-2.65889H418.4034v1.59886h1.29486a.8022.8022,0,1,0,0-1.59886Z"></path><path class="cls-8" d="M419.51526,168.28082a6.29376,6.29376,0,1,1,6.29435-6.29395A6.30082,6.30082,0,0,1,419.51526,168.28082Zm0-11.7913a5.49754,5.49754,0,1,0,5.49812,5.49735A5.50374,5.50374,0,0,0,419.51526,156.48952Z"></path></g></svg> 